<svg xmlns="http://www.w3.org/2000/svg" viewBox="0 0 900 492" width="900" height="492" role="img" aria-labelledby="t-ccaa d-ccaa" font-family="Georgia, 'Source Serif 4', serif">
<title id="t-ccaa">Mediana del tipo de IBI urbano por comunidad autónoma en los municipios analizados</title>
<desc id="d-ccaa">Gráfico de barras horizontales. Cada barra es la mediana del tipo de IBI urbano de los municipios que la guía cubre en esa comunidad autónoma, con el número de municipios entre paréntesis. El IBI es un tributo municipal: la comunidad autónoma no fija el tipo.</desc>
<rect width="900" height="492" fill="#f5f0e8"/>
<text x="24" y="38" font-size="21" font-weight="700" fill="#1a1a2e">Mediana del tipo de IBI urbano por comunidad</text>
<text x="24" y="61" font-size="13" fill="#6b6b7b">El IBI lo fija cada ayuntamiento; las diferencias entre comunidades reflejan la muestra, no una regulación autonómica.</text>
<text x="200" y="127" font-size="13" fill="#1a1a2e" text-anchor="end">Extremadura</text>
<rect x="210" y="112" width="576" height="21" rx="2" fill="#c8522a"/>
<text x="794" y="127" font-size="12.5" font-weight="700" fill="#1a1a2e">0,7%</text>
<text x="848" y="127" font-size="11.5" fill="#6b6b7b">15 municipios</text>
<text x="200" y="161" font-size="13" fill="#1a1a2e" text-anchor="end">Asturias</text>
<rect x="210" y="146" width="560" height="21" rx="2" fill="#2a7c6f"/>
<text x="778" y="161" font-size="12.5" font-weight="700" fill="#1a1a2e">0,68%</text>
<text x="832" y="161" font-size="11.5" fill="#6b6b7b">13 municipios</text>
<text x="200" y="195" font-size="13" fill="#1a1a2e" text-anchor="end">Aragón</text>
<rect x="210" y="180" width="547" height="21" rx="2" fill="#2a7c6f"/>
<text x="765" y="195" font-size="12.5" font-weight="700" fill="#1a1a2e">0,6643%</text>
<text x="819" y="195" font-size="11.5" fill="#6b6b7b">14 municipios</text>
<text x="200" y="229" font-size="13" fill="#1a1a2e" text-anchor="end">Castilla y León</text>
<rect x="210" y="214" width="517" height="21" rx="2" fill="#2a7c6f"/>
<text x="735" y="229" font-size="12.5" font-weight="700" fill="#1a1a2e">0,628%</text>
<text x="789" y="229" font-size="11.5" fill="#6b6b7b">14 municipios</text>
<text x="200" y="263" font-size="13" fill="#1a1a2e" text-anchor="end">Castilla-La Mancha</text>
<rect x="210" y="248" width="513" height="21" rx="2" fill="#2a7c6f"/>
<text x="731" y="263" font-size="12.5" font-weight="700" fill="#1a1a2e">0,6235%</text>
<text x="785" y="263" font-size="11.5" fill="#6b6b7b">20 municipios</text>
<text x="200" y="297" font-size="13" fill="#1a1a2e" text-anchor="end">Murcia</text>
<rect x="210" y="282" width="505" height="21" rx="2" fill="#2a7c6f"/>
<text x="723" y="297" font-size="12.5" font-weight="700" fill="#1a1a2e">0,6138%</text>
<text x="777" y="297" font-size="11.5" fill="#6b6b7b">16 municipios</text>
<text x="200" y="331" font-size="13" fill="#1a1a2e" text-anchor="end">La Rioja</text>
<rect x="210" y="316" width="502" height="21" rx="2" fill="#2a7c6f"/>
<text x="720" y="331" font-size="12.5" font-weight="700" fill="#1a1a2e">0,61%</text>
<text x="774" y="331" font-size="11.5" fill="#6b6b7b">8 municipios</text>
<text x="200" y="365" font-size="13" fill="#1a1a2e" text-anchor="end">Galicia</text>
<rect x="210" y="350" width="440" height="21" rx="2" fill="#2a7c6f"/>
<text x="658" y="365" font-size="12.5" font-weight="700" fill="#1a1a2e">0,535%</text>
<text x="712" y="365" font-size="11.5" fill="#6b6b7b">24 municipios</text>
<text x="200" y="399" font-size="13" fill="#1a1a2e" text-anchor="end">Cantabria</text>
<rect x="210" y="384" width="435" height="21" rx="2" fill="#c8522a"/>
<text x="653" y="399" font-size="12.5" font-weight="700" fill="#1a1a2e">0,528%</text>
<text x="707" y="399" font-size="11.5" fill="#6b6b7b">10 municipios</text>
<line x1="210" y1="98" x2="810" y2="98" stroke="#d8d0c0"/>
<text x="24" y="476" font-size="11.5" fill="#6b6b7b">Elaboración propia de TasasMunicipales.info con los tipos del Ministerio de Hacienda. La muestra tiene sesgo hacia los municipios más poblados.</text>
</svg>
